<?xml version="1.0" encoding="utf-8"?><svg viewBox="0 0 224 30" xmlns="http://www.w3.org/2000/svg" xmlns:xlink="http://www.w3.org/1999/xlink"><style>:root>svg{display:none}:root>svg:target{display:block}</style><svg viewBox="0 0 30 30" id="facebook" xmlns="http://www.w3.org/2000/svg"><path fill-rule="evenodd" clip-rule="evenodd" d="M15 0C6.716 0 0 6.716 0 15c0 8.284 6.716 15 15 15 8.284 0 15-6.716 15-15 0-8.284-6.716-15-15-15zm1.564 15.659v8.16h-3.377v-8.16H11.5v-2.812h1.687v-1.688c0-2.295.953-3.659 3.659-3.659h2.253v2.813H17.69c-1.053 0-1.123.393-1.123 1.126l-.003 1.408h2.55l-.298 2.812h-2.252z"/></svg><svg viewBox="0 0 30 30" id="instagram" xmlns="http://www.w3.org/2000/svg"><path fill-rule="evenodd" clip-rule="evenodd" d="M15 0C6.716 0 0 6.716 0 15c0 8.284 6.716 15 15 15 8.284 0 15-6.716 15-15 0-8.284-6.716-15-15-15zm-3.298 7.048C12.555 7.01 12.828 7 15.001 7h-.003c2.174 0 2.445.01 3.299.048.851.04 1.433.174 1.943.372.527.204.972.478 1.417.923.445.444.718.89.923 1.417.197.508.332 1.09.372 1.941.038.854.048 1.126.048 3.3 0 2.172-.01 2.444-.048 3.297-.04.852-.175 1.433-.372 1.942a3.927 3.927 0 01-.923 1.417c-.445.445-.89.719-1.416.923-.51.198-1.091.333-1.943.372-.854.039-1.125.048-3.298.048s-2.445-.01-3.299-.048c-.851-.04-1.433-.174-1.942-.372a3.918 3.918 0 01-1.416-.923 3.92 3.92 0 01-.923-1.417c-.198-.509-.332-1.09-.372-1.942C7.01 17.445 7 17.173 7 15s.01-2.445.048-3.299c.038-.851.173-1.433.372-1.941a3.92 3.92 0 01.923-1.417A3.918 3.918 0 019.76 7.42c.509-.198 1.09-.333 1.942-.372z"/><path fill-rule="evenodd" clip-rule="evenodd" d="M14.283 8.442h.718c2.136 0 2.389.007 3.232.046.78.035 1.204.166 1.486.275.373.145.64.319.92.599.28.28.453.546.598.92.11.281.24.705.275 1.485.039.843.047 1.096.047 3.231s-.008 2.389-.047 3.232c-.035.78-.166 1.203-.275 1.485a2.47 2.47 0 01-.599.919c-.28.28-.546.453-.92.598-.28.11-.704.24-1.485.276-.843.038-1.096.047-3.232.047s-2.39-.009-3.233-.047c-.78-.036-1.203-.166-1.485-.276a2.478 2.478 0 01-.92-.598 2.48 2.48 0 01-.6-.92c-.109-.281-.24-.705-.275-1.485-.038-.843-.046-1.096-.046-3.233 0-2.136.008-2.388.046-3.231.036-.78.166-1.204.276-1.486.145-.373.319-.64.599-.92.28-.28.546-.453.92-.598.282-.11.705-.24 1.485-.276.738-.034 1.024-.044 2.515-.045v.002zm4.988 1.328a.96.96 0 100 1.92.96.96 0 000-1.92zM10.893 15a4.109 4.109 0 118.217 0 4.109 4.109 0 01-8.217 0z"/><path fill-rule="evenodd" clip-rule="evenodd" d="M15 12.334a2.667 2.667 0 110 5.333 2.667 2.667 0 010-5.334z"/></svg><svg viewBox="0 0 224 23" id="logo" xmlns="http://www.w3.org/2000/svg"><path d="M5.47 12.49h5.25L17.29 22h-5.94l-5.88-9.51zM.22 1h5.07v21H.22V1zM3.4 5.29V1h4.47c1.8 0 3.3.29 4.5.87 1.2.58 2.11 1.39 2.73 2.43.62 1.02.93 2.21.93 3.57 0 1.34-.31 2.53-.93 3.57-.62 1.02-1.53 1.82-2.73 2.4-1.2.58-2.7.87-4.5.87H3.4v-3.93h4.11c.68 0 1.26-.1 1.74-.3.5-.22.88-.53 1.14-.93.26-.42.39-.92.39-1.5s-.13-1.07-.39-1.47c-.26-.42-.64-.74-1.14-.96-.48-.22-1.06-.33-1.74-.33H3.4zm20.414 6.21c0 1.24.24 2.34.72 3.3.5.94 1.19 1.68 2.07 2.22.9.54 1.95.81 3.15.81 1.18 0 2.21-.27 3.09-.81.9-.54 1.59-1.28 2.07-2.22.5-.96.75-2.06.75-3.3 0-1.24-.24-2.33-.72-3.27a5.423 5.423 0 00-2.04-2.25c-.88-.54-1.93-.81-3.15-.81-1.2 0-2.25.27-3.15.81-.88.54-1.57 1.29-2.07 2.25-.48.94-.72 2.03-.72 3.27zm-5.37 0c0-1.62.28-3.1.84-4.44.58-1.34 1.38-2.5 2.4-3.48a10.45 10.45 0 013.6-2.25c1.38-.54 2.87-.81 4.47-.81 1.62 0 3.11.27 4.47.81 1.38.52 2.58 1.27 3.6 2.25s1.81 2.14 2.37 3.48c.56 1.34.84 2.82.84 4.44 0 1.62-.28 3.11-.84 4.47-.54 1.36-1.32 2.54-2.34 3.54-1 1-2.19 1.78-3.57 2.34-1.38.54-2.89.81-4.53.81-1.66 0-3.18-.27-4.56-.81-1.38-.56-2.58-1.34-3.6-2.34-1-1-1.78-2.18-2.34-3.54-.54-1.36-.81-2.85-.81-4.47zm29.619.06V9.34h3.39c.58 0 1.07-.09 1.47-.27.42-.18.74-.43.96-.75.22-.34.33-.75.33-1.23 0-.72-.24-1.26-.72-1.62-.48-.36-1.16-.54-2.04-.54h-2.1v13.14h2.58c.66 0 1.25-.08 1.77-.24.52-.18.93-.46 1.23-.84.32-.4.48-.94.48-1.62 0-.44-.09-.82-.27-1.14-.18-.32-.43-.58-.75-.78-.32-.2-.69-.34-1.11-.42-.4-.1-.85-.15-1.35-.15h-3.87v-2.76h4.44c1.02 0 2.01.11 2.97.33.96.22 1.83.58 2.61 1.08.78.48 1.4 1.1 1.86 1.86.48.74.72 1.64.72 2.7 0 1.4-.34 2.53-1.02 3.39-.66.86-1.6 1.5-2.82 1.92-1.22.4-2.66.6-4.32.6h-8.22V1h7.71c1.46 0 2.74.2 3.84.6 1.12.38 2 .97 2.64 1.77.66.78.99 1.77.99 2.97 0 1.1-.33 2.04-.99 2.82-.64.78-1.52 1.38-2.64 1.8-1.1.4-2.38.6-3.84.6h-3.93zm20.311-.06c0 1.24.24 2.34.72 3.3.5.94 1.19 1.68 2.07 2.22.9.54 1.95.81 3.15.81 1.18 0 2.21-.27 3.09-.81.9-.54 1.59-1.28 2.07-2.22.5-.96.75-2.06.75-3.3 0-1.24-.24-2.33-.72-3.27a5.423 5.423 0 00-2.04-2.25c-.88-.54-1.93-.81-3.15-.81-1.2 0-2.25.27-3.15.81-.88.54-1.57 1.29-2.07 2.25-.48.94-.72 2.03-.72 3.27zm-5.37 0c0-1.62.28-3.1.84-4.44.58-1.34 1.38-2.5 2.4-3.48a10.45 10.45 0 013.6-2.25c1.38-.54 2.87-.81 4.47-.81 1.62 0 3.11.27 4.47.81 1.38.52 2.58 1.27 3.6 2.25s1.81 2.14 2.37 3.48c.56 1.34.84 2.82.84 4.44 0 1.62-.28 3.11-.84 4.47-.54 1.36-1.32 2.54-2.34 3.54-1 1-2.19 1.78-3.57 2.34-1.38.54-2.89.81-4.53.81-1.66 0-3.18-.27-4.56-.81-1.38-.56-2.58-1.34-3.6-2.34-1-1-1.78-2.18-2.34-3.54-.54-1.36-.81-2.85-.81-4.47zm24.72 8.46c0-.76.27-1.41.81-1.95s1.21-.81 2.01-.81c.84 0 1.52.27 2.04.81s.78 1.19.78 1.95-.26 1.41-.78 1.95-1.2.81-2.04.81c-.8 0-1.47-.27-2.01-.81-.54-.54-.81-1.19-.81-1.95zm12.189-5.34a10 10 0 001.41 1.98c.54.56 1.12.99 1.74 1.29.64.3 1.31.45 2.01.45.74 0 1.35-.18 1.83-.54.48-.38.72-.89.72-1.53 0-.54-.14-.97-.42-1.29-.28-.34-.73-.66-1.35-.96-.62-.3-1.44-.64-2.46-1.02-.5-.18-1.08-.43-1.74-.75a8.9 8.9 0 01-1.83-1.23 6.625 6.625 0 01-1.44-1.86c-.38-.74-.57-1.63-.57-2.67 0-1.24.32-2.31.96-3.21.66-.9 1.54-1.58 2.64-2.04 1.12-.48 2.36-.72 3.72-.72 1.4 0 2.61.23 3.63.69 1.04.46 1.9 1.04 2.58 1.74.68.7 1.2 1.41 1.56 2.13l-3.87 2.16c-.3-.5-.65-.93-1.05-1.29-.38-.38-.81-.67-1.29-.87-.46-.22-.96-.33-1.5-.33-.72 0-1.27.16-1.65.48-.38.3-.57.68-.57 1.14 0 .48.18.9.54 1.26.38.36.91.69 1.59.99.7.3 1.54.62 2.52.96.74.28 1.43.61 2.07.99.64.36 1.2.8 1.68 1.32.5.52.89 1.12 1.17 1.8.28.68.42 1.46.42 2.34 0 1.06-.22 2.01-.66 2.85-.42.82-1 1.51-1.74 2.07-.72.56-1.55.98-2.49 1.26-.92.3-1.87.45-2.85.45-1.36 0-2.63-.24-3.81-.72a9.895 9.895 0 01-3.03-2.01c-.86-.84-1.53-1.76-2.01-2.76l3.54-2.55zm20.76-3.12c0 1.28.29 2.39.87 3.33a5.75 5.75 0 002.28 2.1c.96.48 2.01.72 3.15.72 1 0 1.88-.13 2.64-.39.76-.26 1.44-.6 2.04-1.02.6-.42 1.13-.87 1.59-1.35v5.46c-.84.66-1.76 1.18-2.76 1.56-1 .38-2.27.57-3.81.57-1.68 0-3.23-.26-4.65-.78-1.42-.52-2.64-1.27-3.66-2.25s-1.81-2.14-2.37-3.48c-.56-1.34-.84-2.83-.84-4.47 0-1.64.28-3.13.84-4.47.56-1.34 1.35-2.5 2.37-3.48s2.24-1.73 3.66-2.25 2.97-.78 4.65-.78c1.54 0 2.81.19 3.81.57 1 .38 1.92.9 2.76 1.56v5.46c-.46-.48-.99-.93-1.59-1.35-.6-.44-1.28-.78-2.04-1.02-.76-.26-1.64-.39-2.64-.39-1.14 0-2.19.24-3.15.72a5.75 5.75 0 00-2.28 2.1c-.58.92-.87 2.03-.87 3.33zm18.125 1.71V8.65h15.9v4.56h-15.9zM151.488 1h5.07v21h-5.07V1zm-14.1 0h5.07v21h-5.07V1zm27.754 10.5c0 1.24.24 2.34.72 3.3.5.94 1.19 1.68 2.07 2.22.9.54 1.95.81 3.15.81 1.18 0 2.21-.27 3.09-.81.9-.54 1.59-1.28 2.07-2.22.5-.96.75-2.06.75-3.3 0-1.24-.24-2.33-.72-3.27a5.423 5.423 0 00-2.04-2.25c-.88-.54-1.93-.81-3.15-.81-1.2 0-2.25.27-3.15.81-.88.54-1.57 1.29-2.07 2.25-.48.94-.72 2.03-.72 3.27zm-5.37 0c0-1.62.28-3.1.84-4.44.58-1.34 1.38-2.5 2.4-3.48a10.45 10.45 0 013.6-2.25c1.38-.54 2.87-.81 4.47-.81 1.62 0 3.11.27 4.47.81 1.38.52 2.58 1.27 3.6 2.25s1.81 2.14 2.37 3.48c.56 1.34.84 2.82.84 4.44 0 1.62-.28 3.11-.84 4.47-.54 1.36-1.32 2.54-2.34 3.54-1 1-2.19 1.78-3.57 2.34-1.38.54-2.89.81-4.53.81-1.66 0-3.18-.27-4.56-.81-1.38-.56-2.58-1.34-3.6-2.34-1-1-1.78-2.18-2.34-3.54-.54-1.36-.81-2.85-.81-4.47zm30.009 0c0 1.24.24 2.34.72 3.3.5.94 1.19 1.68 2.07 2.22.9.54 1.95.81 3.15.81 1.18 0 2.21-.27 3.09-.81.9-.54 1.59-1.28 2.07-2.22.5-.96.75-2.06.75-3.3 0-1.24-.24-2.33-.72-3.27a5.423 5.423 0 00-2.04-2.25c-.88-.54-1.93-.81-3.15-.81-1.2 0-2.25.27-3.15.81-.88.54-1.57 1.29-2.07 2.25-.48.94-.72 2.03-.72 3.27zm-5.37 0c0-1.62.28-3.1.84-4.44.58-1.34 1.38-2.5 2.4-3.48a10.45 10.45 0 013.6-2.25c1.38-.54 2.87-.81 4.47-.81 1.62 0 3.11.27 4.47.81 1.38.52 2.58 1.27 3.6 2.25s1.81 2.14 2.37 3.48c.56 1.34.84 2.82.84 4.44 0 1.62-.28 3.11-.84 4.47-.54 1.36-1.32 2.54-2.34 3.54-1 1-2.19 1.78-3.57 2.34-1.38.54-2.89.81-4.53.81-1.66 0-3.18-.27-4.56-.81-1.38-.56-2.58-1.34-3.6-2.34-1-1-1.78-2.18-2.34-3.54-.54-1.36-.81-2.85-.81-4.47zM210.249 1h5.07v16.65h8.43V22h-13.5V1z"/></svg><svg viewBox="0 0 3 13" id="tooltip-icon" xmlns="http://www.w3.org/2000/svg"><path d="M1.549 1.87c-.594 0-.89-.28-.89-.84 0-.55.296-.824.89-.824.593 0 .89.275.89.824 0 .56-.297.84-.89.84zm0 10.214c-.448 0-.672-.246-.672-.74v-6.87c0-.482.224-.723.672-.723.459 0 .689.24.689.722v6.872c0 .492-.23.739-.69.739z"/></svg></svg>